<?xml version="1.0" standalone="no"?>
<svg xmlns:xlink="http://www.w3.org/1999/xlink" id="wave" style="transform:rotate(0deg); transition: 0.3s" viewBox="0 0 1440 490" version="1.1" xmlns="http://www.w3.org/2000/svg"><defs><linearGradient id="sw-gradient-0" x1="0" x2="0" y1="1" y2="0"><stop stop-color="rgba(0, 185, 107, 1)" offset="0%"/><stop stop-color="rgba(202.99, 202.99, 202.99, 1)" offset="100%"/></linearGradient></defs><path style="transform:translate(0, 0px); opacity:1" fill="url(#sw-gradient-0)" d="M0,245L10,204.2C20,163,40,82,60,81.7C80,82,100,163,120,163.3C140,163,160,82,180,81.7C200,82,220,163,240,171.5C260,180,280,114,300,130.7C320,147,340,245,360,277.7C380,310,400,278,420,253.2C440,229,460,212,480,179.7C500,147,520,98,540,81.7C560,65,580,82,600,147C620,212,640,327,660,351.2C680,376,700,310,720,285.8C740,261,760,278,780,269.5C800,261,820,229,840,204.2C860,180,880,163,900,147C920,131,940,114,960,138.8C980,163,1000,229,1020,261.3C1040,294,1060,294,1080,302.2C1100,310,1120,327,1140,343C1160,359,1180,376,1200,334.8C1220,294,1240,196,1260,163.3C1280,131,1300,163,1320,171.5C1340,180,1360,163,1380,130.7C1400,98,1420,49,1430,24.5L1440,0L1440,490L1430,490C1420,490,1400,490,1380,490C1360,490,1340,490,1320,490C1300,490,1280,490,1260,490C1240,490,1220,490,1200,490C1180,490,1160,490,1140,490C1120,490,1100,490,1080,490C1060,490,1040,490,1020,490C1000,490,980,490,960,490C940,490,920,490,900,490C880,490,860,490,840,490C820,490,800,490,780,490C760,490,740,490,720,490C700,490,680,490,660,490C640,490,620,490,600,490C580,490,560,490,540,490C520,490,500,490,480,490C460,490,440,490,420,490C400,490,380,490,360,490C340,490,320,490,300,490C280,490,260,490,240,490C220,490,200,490,180,490C160,490,140,490,120,490C100,490,80,490,60,490C40,490,20,490,10,490L0,490Z"/></svg>